# MagicaVoxel @ Ephtracy

# group
o 

# material
mtllib MedBayFloorSide.mtl
usemtl palette

# normals
vn -1 0 0
vn 1 0 0
vn 0 0 1
vn 0 0 -1
vn 0 -1 0
vn 0 1 0

# texcoords
vt 0.294922 0.5
vt 0.298828 0.5
vt 0.302734 0.5

# verts
v -1.5 0 -1
v -1.5 0 -1.1
v -1.5 4 -1
v -1.5 4 -1.1
v 1.5 0 -1
v 1.5 0 -1.1
v 1.5 4 -1
v 1.5 4 -1.1
v -1.5 0 -1
v -1.5 4 -1
v -1.4 0.1 -1
v -1.4 3.9 -1
v -1.3 0.2 -1
v -1.3 3.8 -1
v 1.3 0.2 -1
v 1.3 3.8 -1
v 1.4 0.1 -1
v 1.4 3.9 -1
v 1.5 0 -1
v 1.5 4 -1
v -1.5 0 -1.1
v -1.5 4 -1.1
v -1.4 0.1 -1.1
v -1.4 3.9 -1.1
v -1.3 0.2 -1.1
v -1.3 3.8 -1.1
v 1.3 0.2 -1.1
v 1.3 3.8 -1.1
v 1.4 0.1 -1.1
v 1.4 3.9 -1.1
v 1.5 0 -1.1
v 1.5 4 -1.1
v -1.5 0 -1
v 1.5 0 -1
v -1.5 0 -1.1
v 1.5 0 -1.1
v -1.5 4 -1
v 1.5 4 -1
v -1.5 4 -1.1
v 1.5 4 -1.1

# faces
f 3/3/1 2/3/1 1/3/1
f 4/3/1 2/3/1 3/3/1
f 5/3/2 6/3/2 7/3/2
f 7/3/2 6/3/2 8/3/2
f 11/3/3 10/3/3 9/3/3
f 12/3/3 10/3/3 11/3/3
f 13/2/3 12/2/3 11/2/3
f 14/2/3 12/2/3 13/2/3
f 15/2/3 13/2/3 11/2/3
f 15/1/3 14/1/3 13/1/3
f 16/2/3 12/2/3 14/2/3
f 16/1/3 14/1/3 15/1/3
f 17/3/3 11/3/3 9/3/3
f 17/2/3 15/2/3 11/2/3
f 17/2/3 16/2/3 15/2/3
f 18/2/3 12/2/3 16/2/3
f 18/2/3 16/2/3 17/2/3
f 18/3/3 10/3/3 12/3/3
f 19/3/3 17/3/3 9/3/3
f 19/3/3 18/3/3 17/3/3
f 20/3/3 10/3/3 18/3/3
f 20/3/3 18/3/3 19/3/3
f 21/3/4 22/3/4 23/3/4
f 23/3/4 22/3/4 24/3/4
f 23/2/4 24/2/4 25/2/4
f 25/2/4 24/2/4 26/2/4
f 23/2/4 25/2/4 27/2/4
f 25/1/4 26/1/4 27/1/4
f 26/2/4 24/2/4 28/2/4
f 27/1/4 26/1/4 28/1/4
f 21/3/4 23/3/4 29/3/4
f 23/2/4 27/2/4 29/2/4
f 27/2/4 28/2/4 29/2/4
f 28/2/4 24/2/4 30/2/4
f 29/2/4 28/2/4 30/2/4
f 24/3/4 22/3/4 30/3/4
f 21/3/4 29/3/4 31/3/4
f 29/3/4 30/3/4 31/3/4
f 30/3/4 22/3/4 32/3/4
f 31/3/4 30/3/4 32/3/4
f 35/3/5 34/3/5 33/3/5
f 36/3/5 34/3/5 35/3/5
f 37/3/6 38/3/6 39/3/6
f 39/3/6 38/3/6 40/3/6
