# MagicaVoxel @ Ephtracy

# group
o 

# material
mtllib MedBayWallsCross.mtl
usemtl palette

# normals
vn -1 0 0
vn 1 0 0
vn 0 0 1
vn 0 0 -1
vn 0 -1 0
vn 0 1 0

# texcoords
vt 0.294922 0.5
vt 0.298828 0.5
vt 0.302734 0.5
vt 0.306641 0.5
vt 0.310547 0.5

# verts
v -0.1 0 0
v -0.1 0 -0.1
v -0.1 0 -1.9
v -0.1 1 -0.1
v -0.1 1 -1.9
v -0.1 1.2 -0.1
v -0.1 1.2 -1.9
v -0.1 1.7 -0.9
v -0.1 1.7 -1.1
v -0.1 1.9 -0.7
v -0.1 1.9 -0.9
v -0.1 1.9 -1.1
v -0.1 1.9 -1.3
v -0.1 2.1 -0.7
v -0.1 2.1 -0.9
v -0.1 2.1 -1.1
v -0.1 2.1 -1.3
v -0.1 2.3 -0.9
v -0.1 2.3 -1.1
v -0.1 3 -0.1
v -0.1 3 -1.9
v -0.1 3.1 -0.1
v -0.1 3.1 -1.9
v -0.1 3.5 -0.1
v -0.1 3.5 -1.9
v -0.1 3.6 -0.1
v -0.1 3.6 -1.9
v -0.1 4 0
v -0.1 4 -0.1
v -0.1 4 -1.9
v 0 0 0
v 0 0 -0.1
v 0 0 -1.9
v 0 1 -0.1
v 0 1 -1.9
v 0 1.2 -0.1
v 0 1.2 -1.9
v 0 1.7 -0.9
v 0 1.7 -1.1
v 0 1.9 -0.7
v 0 1.9 -0.9
v 0 1.9 -1.1
v 0 1.9 -1.3
v 0 2.1 -0.7
v 0 2.1 -0.9
v 0 2.1 -1.1
v 0 2.1 -1.3
v 0 2.3 -0.9
v 0 2.3 -1.1
v 0 3 -0.1
v 0 3 -1.9
v 0 3.1 -0.1
v 0 3.1 -1.9
v 0 3.5 -0.1
v 0 3.5 -1.9
v 0 3.6 -0.1
v 0 3.6 -1.9
v 0 4 0
v 0 4 -0.1
v 0 4 -1.9
v -0.1 0 0
v -0.1 4 0
v 0 0 0
v 0 4 0
v -0.1 0 -1.9
v -0.1 1 -1.9
v -0.1 1.2 -1.9
v -0.1 3 -1.9
v -0.1 3.1 -1.9
v -0.1 3.5 -1.9
v -0.1 3.6 -1.9
v -0.1 4 -1.9
v 0 0 -1.9
v 0 1 -1.9
v 0 1.2 -1.9
v 0 3 -1.9
v 0 3.1 -1.9
v 0 3.5 -1.9
v 0 3.6 -1.9
v 0 4 -1.9
v -0.1 0 0
v 0 0 0
v -0.1 0 -0.1
v 0 0 -0.1
v -0.1 0 -1.9
v 0 0 -1.9
v -0.1 4 0
v 0 4 0
v -0.1 4 -0.1
v 0 4 -0.1
v -0.1 4 -1.9
v 0 4 -1.9

# faces
f 4/3/1 2/3/1 1/3/1
f 4/5/1 3/5/1 2/5/1
f 5/5/1 3/5/1 4/5/1
f 6/3/1 4/3/1 1/3/1
f 6/2/1 5/2/1 4/2/1
f 7/2/1 5/2/1 6/2/1
f 8/4/1 7/4/1 6/4/1
f 9/4/1 7/4/1 8/4/1
f 10/4/1 8/4/1 6/4/1
f 11/1/1 9/1/1 8/1/1
f 11/4/1 8/4/1 10/4/1
f 12/4/1 7/4/1 9/4/1
f 12/1/1 9/1/1 11/1/1
f 13/4/1 7/4/1 12/4/1
f 14/1/1 11/1/1 10/1/1
f 14/4/1 10/4/1 6/4/1
f 14/1/1 13/1/1 12/1/1
f 14/1/1 12/1/1 11/1/1
f 15/1/1 13/1/1 14/1/1
f 16/1/1 13/1/1 15/1/1
f 17/4/1 7/4/1 13/4/1
f 17/1/1 13/1/1 16/1/1
f 18/1/1 16/1/1 15/1/1
f 18/4/1 15/4/1 14/4/1
f 19/4/1 17/4/1 16/4/1
f 19/1/1 16/1/1 18/1/1
f 20/3/1 6/3/1 1/3/1
f 20/4/1 14/4/1 6/4/1
f 20/4/1 19/4/1 18/4/1
f 20/4/1 18/4/1 14/4/1
f 21/4/1 17/4/1 19/4/1
f 21/4/1 19/4/1 20/4/1
f 21/4/1 7/4/1 17/4/1
f 22/3/1 20/3/1 1/3/1
f 22/3/1 21/3/1 20/3/1
f 23/3/1 21/3/1 22/3/1
f 24/3/1 22/3/1 1/3/1
f 24/4/1 23/4/1 22/4/1
f 25/4/1 23/4/1 24/4/1
f 26/3/1 24/3/1 1/3/1
f 26/3/1 25/3/1 24/3/1
f 27/3/1 25/3/1 26/3/1
f 28/3/1 26/3/1 1/3/1
f 29/4/1 27/4/1 26/4/1
f 29/3/1 26/3/1 28/3/1
f 30/4/1 27/4/1 29/4/1
f 31/3/2 32/3/2 34/3/2
f 32/5/2 33/5/2 34/5/2
f 34/5/2 33/5/2 35/5/2
f 31/3/2 34/3/2 36/3/2
f 34/2/2 35/2/2 36/2/2
f 36/2/2 35/2/2 37/2/2
f 36/4/2 37/4/2 38/4/2
f 38/4/2 37/4/2 39/4/2
f 36/4/2 38/4/2 40/4/2
f 38/1/2 39/1/2 41/1/2
f 40/4/2 38/4/2 41/4/2
f 39/4/2 37/4/2 42/4/2
f 41/1/2 39/1/2 42/1/2
f 42/4/2 37/4/2 43/4/2
f 40/1/2 41/1/2 44/1/2
f 36/4/2 40/4/2 44/4/2
f 42/1/2 43/1/2 44/1/2
f 41/1/2 42/1/2 44/1/2
f 44/1/2 43/1/2 45/1/2
f 45/1/2 43/1/2 46/1/2
f 43/4/2 37/4/2 47/4/2
f 46/1/2 43/1/2 47/1/2
f 45/1/2 46/1/2 48/1/2
f 44/4/2 45/4/2 48/4/2
f 46/4/2 47/4/2 49/4/2
f 48/1/2 46/1/2 49/1/2
f 31/3/2 36/3/2 50/3/2
f 36/4/2 44/4/2 50/4/2
f 48/4/2 49/4/2 50/4/2
f 44/4/2 48/4/2 50/4/2
f 49/4/2 47/4/2 51/4/2
f 50/4/2 49/4/2 51/4/2
f 47/4/2 37/4/2 51/4/2
f 31/3/2 50/3/2 52/3/2
f 50/3/2 51/3/2 52/3/2
f 52/3/2 51/3/2 53/3/2
f 31/3/2 52/3/2 54/3/2
f 52/4/2 53/4/2 54/4/2
f 54/4/2 53/4/2 55/4/2
f 31/3/2 54/3/2 56/3/2
f 54/3/2 55/3/2 56/3/2
f 56/3/2 55/3/2 57/3/2
f 31/3/2 56/3/2 58/3/2
f 56/4/2 57/4/2 59/4/2
f 58/3/2 56/3/2 59/3/2
f 59/4/2 57/4/2 60/4/2
f 63/3/3 62/3/3 61/3/3
f 64/3/3 62/3/3 63/3/3
f 65/5/4 66/5/4 73/5/4
f 66/2/4 67/2/4 74/2/4
f 73/5/4 66/5/4 74/5/4
f 67/4/4 68/4/4 75/4/4
f 74/2/4 67/2/4 75/2/4
f 68/3/4 69/3/4 76/3/4
f 75/4/4 68/4/4 76/4/4
f 69/4/4 70/4/4 77/4/4
f 76/3/4 69/3/4 77/3/4
f 70/3/4 71/3/4 78/3/4
f 77/4/4 70/4/4 78/4/4
f 71/4/4 72/4/4 79/4/4
f 78/3/4 71/3/4 79/3/4
f 79/4/4 72/4/4 80/4/4
f 83/3/5 82/3/5 81/3/5
f 84/3/5 82/3/5 83/3/5
f 85/5/5 84/5/5 83/5/5
f 86/5/5 84/5/5 85/5/5
f 87/3/6 88/3/6 89/3/6
f 89/3/6 88/3/6 90/3/6
f 89/4/6 90/4/6 91/4/6
f 91/4/6 90/4/6 92/4/6
